<svg width="72" height="72" viewBox="0 0 72 72" fill="none" xmlns="http://www.w3.org/2000/svg">
<g clip-path="url(#clip0_290_1006)">
<path fill-rule="evenodd" clip-rule="evenodd" d="M11.5072 -0.105028C6.34302 1.06222 2.42682 4.5934 0.718745 9.62289L0.173014 11.23L0.127339 35.1193C0.0772657 61.2714 0.0310834 59.9374 1.08347 62.6595C1.78517 64.4741 2.7709 65.9499 4.30829 67.4871C5.8455 69.0245 7.32131 70.0102 9.13596 70.7119C11.858 71.7643 10.524 71.7181 36.6761 71.6681L60.5654 71.6224L62.1725 71.0643C64.5495 70.239 66.075 69.3058 67.7594 67.647C69.455 65.9773 70.4267 64.5516 71.1578 62.6606C72.1936 59.9819 72.1474 61.2393 72.1474 35.6745C72.1474 10.1098 72.1936 11.3672 71.1578 8.68841C70.4267 6.79747 69.455 5.37174 67.7594 3.70206C66.075 2.04322 64.5495 1.1101 62.1725 0.284732L60.5654 -0.273348L36.5438 -0.303967C16.8506 -0.329004 12.3393 -0.293141 11.5072 -0.105028ZM33.746 18.8391C35.214 19.5981 35.6506 21.7704 34.5703 22.9393C34.3531 23.1743 33.1513 24.0541 31.8997 24.8944L29.6239 26.4223L31.3922 26.8176C44.3356 29.7102 52.6183 38.0107 53.1524 48.6241C53.2688 50.9382 53.0805 51.62 52.1396 52.2899C51.3474 52.8541 49.9068 52.9045 49.1558 52.3941C48.1865 51.7354 47.9131 51.0712 47.7797 49.0524C47.4975 44.7801 45.9253 41.3983 42.8476 38.4436C39.7542 35.4737 35.4992 33.3218 30.3692 32.1323C28.7006 31.7455 27.1551 31.5254 27.1551 31.6746C27.1551 31.7316 28.1447 33.268 29.3542 35.0889C31.3654 38.1166 31.5534 38.4651 31.5534 39.1683C31.5534 40.7913 30.627 41.7899 29.0269 41.8922C28.3007 41.9386 27.961 41.8741 27.5406 41.6101C27.1671 41.3756 25.7596 39.4165 23.0675 35.3839C19.2834 29.7156 19.1371 29.4658 19.0779 28.5695C19.0305 27.8526 19.095 27.5141 19.3587 27.0942C19.5932 26.7207 21.5262 25.3317 25.5003 22.6812C28.6899 20.5537 31.4138 18.7687 31.5534 18.7144C32.046 18.5222 33.2679 18.5918 33.746 18.8391Z" fill="white"/>
</g>
<defs>
<clipPath id="clip0_290_1006">
<rect width="72" height="72" fill="white" transform="translate(0 -0.000488281)"/>
</clipPath>
</defs>
</svg>
