<svg width="72" height="72" viewBox="0 0 72 72" fill="none" xmlns="http://www.w3.org/2000/svg">
<g clip-path="url(#clip0_290_980)">
<path fill-rule="evenodd" clip-rule="evenodd" d="M32.4667 0.560709C23.2281 1.44313 14.4718 6.73741 9.27214 14.5846C0.910329 27.2044 2.64255 43.9443 13.4206 54.6743C17.5216 58.7571 22.9378 61.8304 28.2121 63.0672L29.3021 63.3229V67.8683V72.4136H35.6313H41.9604V67.8764V63.3392L43.5427 62.9369C54.7595 60.0844 63.9744 50.4922 66.4816 39.0586C67.0845 36.3088 67.2055 35.098 67.1952 31.9069C67.1848 28.6411 66.9603 26.8082 66.2242 23.9795C63.9513 15.2449 57.7043 7.65078 49.4851 3.63063C44.2202 1.05537 38.358 -0.0020242 32.4667 0.560709ZM38.3238 4.76862C49.3692 5.88593 58.6523 13.5233 61.8717 24.1418C62.7178 26.9326 62.9562 28.6179 62.9702 31.9069C62.9793 34.0825 62.9197 35.1658 62.7273 36.3202C61.9769 40.8197 60.1773 45.1293 57.6079 48.5799C51.0611 57.3725 40.1601 61.462 29.6537 59.0672C24.0375 57.7869 19.1929 54.9067 15.2013 50.4746C11.7654 46.6594 9.47537 41.8036 8.53402 36.3374C8.17002 34.224 8.20293 29.5718 8.59717 27.4062C9.38451 23.0804 11.1596 18.9932 13.7588 15.5212C14.8523 14.0605 17.5285 11.376 18.9908 10.2727C24.6059 6.03684 31.489 4.07719 38.3238 4.76862ZM33.5215 11.0014V13.1622L32.4315 13.3328C31.8321 13.4268 30.5883 13.7529 29.6677 14.0577C28.7471 14.3624 27.9825 14.5949 27.9686 14.5743C27.9547 14.5538 27.4818 13.73 26.9177 12.7436C26.3537 11.7573 25.8619 10.9504 25.8247 10.9504C25.6841 10.9504 22.2697 12.9621 22.271 13.0443C22.2715 13.0916 22.7417 13.9453 23.3156 14.9414L24.359 16.7523L23.9122 17.1106C23.1466 17.7243 21.7073 19.1426 21.0044 19.9756L20.3317 20.773L18.523 19.7308C17.528 19.1575 16.6753 18.6879 16.628 18.6873C16.5466 18.686 14.5341 22.0997 14.5341 22.2388C14.5341 22.2748 15.341 22.7658 16.3273 23.3298C17.3137 23.8939 18.1375 24.3678 18.158 24.3828C18.1785 24.3979 17.946 25.1634 17.6414 26.084C17.3366 27.0047 17.0105 28.2484 16.9165 28.8478L16.7459 29.9379H14.5851H12.4243V32.0476V34.1573H14.576H16.7277L16.9836 35.5274C17.1244 36.281 17.457 37.5223 17.7227 38.2859C17.9885 39.0496 18.1868 39.6881 18.1633 39.7049C18.1399 39.7218 17.3137 40.197 16.3273 40.7612C15.341 41.3252 14.5341 41.817 14.5341 41.8541C14.5341 41.8913 14.9874 42.7091 15.5415 43.6716C16.3103 45.007 16.6019 45.4016 16.7722 45.3367C17.0694 45.2236 23.5707 41.4747 23.7316 41.3235C23.8039 41.2557 23.5528 40.6697 23.1426 39.9481C21.4101 36.9009 20.733 34.2485 20.9103 31.2038C21.2894 24.698 25.6724 19.4658 32.2514 17.6656C33.7822 17.2468 37.4804 17.2468 39.0112 17.6656C41.8701 18.4479 44.1486 19.732 46.0478 21.6311C49.7612 25.3446 51.2197 30.7123 49.8961 35.794C49.5747 37.0278 49.0243 38.3261 48.201 39.7922C47.7857 40.532 47.4457 41.1754 47.4457 41.2218C47.4457 41.3053 54.5029 45.4092 54.6465 45.4092C54.7209 45.4092 56.7285 41.9813 56.7285 41.8541C56.7285 41.817 55.9214 41.3252 54.9352 40.7612C53.949 40.197 53.1248 39.7239 53.1038 39.7095C53.0829 39.6953 53.2863 39.0246 53.5557 38.2189C53.8254 37.4134 54.1563 36.1701 54.2913 35.4559L54.5369 34.1573H56.6875H58.8382V32.0476V29.9379H56.6774H54.5166L54.346 28.8478C54.2521 28.2484 53.9259 27.0047 53.6211 26.084C53.3165 25.1634 53.084 24.3984 53.1045 24.3842C53.1251 24.3699 53.949 23.9 54.9352 23.3399C55.9214 22.78 56.7285 22.2884 56.7285 22.2477C56.7285 22.1026 54.7192 18.686 54.6345 18.6873C54.5872 18.6879 53.7345 19.1575 52.7396 19.7308L50.9308 20.773L50.2581 19.9756C49.5553 19.1426 48.1159 17.7243 47.3503 17.1106L46.9035 16.7523L47.947 14.9414C48.5208 13.9453 48.991 13.0908 48.9916 13.0421C48.9928 12.9563 45.5904 10.9504 45.4437 10.9504C45.4034 10.9504 44.9088 11.7573 44.3448 12.7436C43.7807 13.73 43.3078 14.5538 43.2939 14.5743C43.28 14.5949 42.5154 14.3624 41.5949 14.0577C40.6742 13.7529 39.4305 13.4268 38.831 13.3328L37.741 13.1622V11.0014V8.84066H35.6313H33.5215V11.0014ZM33.5215 25.8951V30.2912L32.7831 30.6296C31.872 31.047 30.4547 32.4418 30.0191 33.3494C28.7678 35.9572 29.2091 38.7181 31.1947 40.7036C34.1888 43.6979 39.2213 42.9679 41.1523 39.2593C42.1879 37.2703 42.2157 35.3635 41.2385 33.3607C40.7836 32.4286 39.3859 31.0449 38.4794 30.6296L37.741 30.2912V25.8951V21.499H35.6313H33.5215V25.8951ZM36.6195 34.4404C37.2435 34.7589 37.741 35.5691 37.741 36.267C37.741 37.342 36.7012 38.3767 35.6209 38.3767C34.9667 38.3767 34.0978 37.8298 33.7884 37.2232C33.2689 36.205 33.595 35.0935 34.5895 34.4913C35.2629 34.0838 35.8894 34.068 36.6195 34.4404ZM29.3021 48.9254V51.0351H35.6313H41.9604V48.9254V46.8156H35.6313H29.3021V48.9254ZM37.741 66.0844V68.1941H35.6313H33.5215V66.0844V63.9747H35.6313H37.741V66.0844Z" fill="white"/>
</g>
<defs>
<clipPath id="clip0_290_980">
<rect width="72" height="72" fill="white"/>
</clipPath>
</defs>
</svg>
