<svg width="72" height="72" viewBox="0 0 72 72" fill="none" xmlns="http://www.w3.org/2000/svg">
<g clip-path="url(#clip0_290_970)">
<path fill-rule="evenodd" clip-rule="evenodd" d="M35.5134 0.633642C35.2813 0.757279 34.328 1.5991 33.395 2.50422C29.7388 6.05099 25.8722 8.42989 21.274 9.96149C18.1387 11.0057 14.4438 11.6478 11.5612 11.6495C10.4091 11.6501 9.66924 12.0144 9.283 12.7715C9.00605 13.3146 8.99986 13.5783 9 24.9011C9.00014 38.6767 9.08468 39.9975 10.2641 44.6336C11.5325 49.6201 13.8658 54.4882 16.9721 58.6288C20.5568 63.4073 25.4331 67.4855 30.8015 70.1949C32.8214 71.2144 35.8686 72.4131 36.4401 72.4131C37.2331 72.4131 41.2454 70.723 43.5177 69.4317C53.6061 63.6988 60.5578 54.2664 62.9913 43.0096C63.7516 39.4925 63.7587 39.3447 63.8172 25.9018C63.8715 13.4375 63.8701 13.3552 63.5805 12.7875C63.1854 12.0131 62.4557 11.6499 61.2942 11.6498C58.4671 11.6494 54.7019 10.9914 51.5818 9.95235C47.0062 8.42877 43.1544 6.06097 39.4741 2.50956C38.5334 1.60191 37.5614 0.75545 37.3138 0.628438C36.7505 0.339391 36.0617 0.341501 35.5134 0.633642ZM40.0815 17.6255C42.4479 18.1011 44.9985 19.1725 47.1175 20.581C48.7152 21.6429 51.1284 24.1064 52.2383 25.8084C54.4341 29.1757 55.3395 32.2285 55.3395 36.2646C55.3395 37.941 55.2705 38.9174 55.0905 39.781C54.2594 43.772 52.5723 46.899 49.7393 49.6986C46.9109 52.4939 43.8918 54.1055 39.9441 54.9275C38.285 55.2731 34.5702 55.2731 32.9113 54.9275C28.9441 54.1014 25.8355 52.421 22.9923 49.5659C20.2107 46.7724 18.5882 43.7357 17.7648 39.781C17.4192 38.122 17.4192 34.4073 17.7648 32.7482C18.5874 28.7978 20.2053 25.7672 22.9923 22.9569C26.1631 19.7596 29.9271 17.9229 34.4585 17.3621C35.4019 17.2453 39.0373 17.4157 40.0815 17.6255ZM34.2475 21.6407C31.2382 22.1054 28.2024 23.6558 26.0106 25.8475C24.1071 27.7512 22.7764 30.1053 22.0649 32.828C21.6141 34.553 21.6046 38.0248 22.0461 39.6447C22.8238 42.4975 24.1106 44.7816 26.0106 46.6817C27.9107 48.5817 30.1948 49.8685 33.0476 50.6462C34.6675 51.0877 38.1393 51.0782 39.8643 50.6274C45.3822 49.1855 49.266 45.2887 50.8104 39.6447C51.2293 38.1138 51.2293 34.4154 50.8104 32.8845C50.0205 29.9977 48.7364 27.732 46.7972 25.8034C44.8773 23.8938 42.6101 22.6116 39.9441 21.9275C38.5758 21.5764 35.6257 21.4279 34.2475 21.6407ZM45.8553 30.2183C46.4793 30.5367 46.9768 31.347 46.9768 32.045C46.9768 32.2832 46.8545 32.7129 46.7051 33C46.3686 33.6459 35.1217 44.8729 34.5007 45.1826C33.9016 45.4815 33.2943 45.466 32.6595 45.1356C32.017 44.8013 26.414 39.1793 26.1033 38.5573C25.2456 36.8396 27.1571 34.9281 28.8745 35.7863C29.122 35.91 30.29 36.9697 31.47 38.1411L33.6156 40.2709L38.5731 35.3283C41.2998 32.6098 43.7207 30.2868 43.9527 30.1661C44.5329 29.864 45.1966 29.8822 45.8553 30.2183Z" fill="white"/>
</g>
<defs>
<clipPath id="clip0_290_970">
<rect width="72" height="72" fill="white" transform="translate(0 -0.000488281)"/>
</clipPath>
</defs>
</svg>
