<svg width="72" height="72" viewBox="0 0 72 72" fill="none" xmlns="http://www.w3.org/2000/svg">
<g clip-path="url(#clip0_290_1016)">
<path fill-rule="evenodd" clip-rule="evenodd" d="M10.3909 0.675451C7.78717 1.22889 5.65782 2.37148 3.81313 4.2052C2.14509 5.86339 1.22781 7.4223 0.435135 9.94573L0.0535668 11.1608L0.0157335 35.8801C-0.0206933 59.6903 -0.0122547 60.6471 0.244984 61.8993C1.34651 67.2621 5.31029 71.1749 10.6718 72.1919C11.6916 72.3853 14.6869 72.4113 35.9882 72.4113C62.496 72.4113 61.1532 72.4521 63.5604 71.5736C67.798 70.0271 70.9049 66.3026 71.7724 61.7293C71.9676 60.7007 71.9928 57.7655 71.9913 36.3558C71.9894 13.2685 71.9772 12.0865 71.7267 10.8795C70.6279 5.58267 66.8119 1.76671 61.5151 0.667856C60.3068 0.417087 59.1448 0.405554 35.9179 0.413149C13.0063 0.420744 11.5166 0.436074 10.3909 0.675451ZM23.4708 11.7977C25.488 12.1122 27.3449 13.4448 28.2764 15.2463L28.745 16.1526L44.7784 16.1564C53.7131 16.1587 61.0524 16.2161 61.355 16.2864C63.4123 16.7637 63.4123 19.9035 61.355 20.3808C61.0524 20.4512 53.7131 20.5085 44.7784 20.5108L28.745 20.5146L28.2776 21.4185C26.6663 24.5349 22.7624 25.817 19.5483 24.2855C18.3849 23.7311 17.0596 22.4352 16.5179 21.3223L16.1243 20.5136L13.6444 20.5102C12.2805 20.5084 10.92 20.4502 10.6213 20.3808C8.56409 19.9035 8.56409 16.7637 10.6213 16.2864C10.92 16.2171 12.2805 16.1588 13.6444 16.157L16.1243 16.1536L16.5179 15.3449C17.3693 13.5957 19.4144 12.0841 21.3021 11.8087C22.4662 11.639 22.4534 11.6391 23.4708 11.7977ZM21.8218 16.0093C20.7558 16.2616 20.0935 17.1658 20.0976 18.3632C20.1024 19.751 21.0406 20.6945 22.416 20.6945C24.0326 20.6945 25.0167 19.4562 24.7237 17.791C24.4978 16.5072 23.1677 15.6906 21.8218 16.0093ZM51.2431 30.0117C53.0635 30.4858 54.6923 31.8045 55.4581 33.424L55.8708 34.2967H58.6247C61.0423 34.2967 61.4387 34.3288 61.869 34.5588C63.2764 35.3113 63.2388 37.6112 61.8081 38.2902C61.422 38.4733 60.8176 38.5162 58.6107 38.5166L55.8893 38.517L55.4026 39.466C53.7264 42.7326 49.7564 43.9461 46.3659 42.2279C45.3419 41.7091 44.1298 40.4491 43.638 39.3924L43.2313 38.519L26.9144 38.5175C11.2678 38.5161 10.5774 38.5052 10.1074 38.254C8.71838 37.5113 8.71838 35.3015 10.1074 34.5588C10.5774 34.3076 11.2678 34.2967 26.9144 34.2953L43.2313 34.2938L43.638 33.4204C44.8929 30.7241 48.2321 29.2275 51.2431 30.0117ZM48.3938 34.3066C46.7788 35.1275 46.8071 37.7279 48.4397 38.5183C49.5758 39.0682 50.7612 38.776 51.5206 37.7587C51.9348 37.2038 51.9348 35.6089 51.5206 35.0541C50.7619 34.0377 49.5111 33.7387 48.3938 34.3066ZM33.66 48.2456C35.3262 48.799 36.9268 50.2452 37.4851 51.7015L37.7142 52.2992L49.263 52.3026C55.6149 52.3044 61.0563 52.3626 61.355 52.432C63.4123 52.9093 63.4123 56.0491 61.355 56.5264C61.0563 56.5957 55.6149 56.654 49.263 56.6558L37.7142 56.6592L37.4851 57.2569C37.1509 58.1286 36.137 59.3459 35.2603 59.9279C31.886 62.1675 27.0784 60.9353 25.5663 57.4433L25.2289 56.664L18.1967 56.6582C14.329 56.6551 10.92 56.5957 10.6213 56.5264C8.56409 56.0491 8.56409 52.9093 10.6213 52.432C10.92 52.3626 14.329 52.3033 18.1967 52.3002L25.2289 52.2944L25.5663 51.5151C26.8176 48.6251 30.4206 47.1696 33.66 48.2456ZM30.8012 52.1804C30.0656 52.3913 29.6984 52.692 29.3848 53.3398C28.5637 55.036 29.6351 56.8323 31.4679 56.8323C32.6081 56.8323 33.4232 56.2175 33.7561 55.1066C34.2756 53.373 32.5614 51.6754 30.8012 52.1804Z" fill="white"/>
</g>
<defs>
<clipPath id="clip0_290_1016">
<rect width="72" height="72" fill="white" transform="translate(0 -0.000488281)"/>
</clipPath>
</defs>
</svg>
