<svg width="72" height="72" viewBox="0 0 72 72" fill="none" xmlns="http://www.w3.org/2000/svg">
<g clip-path="url(#clip0_290_1036)">
<path fill-rule="evenodd" clip-rule="evenodd" d="M0.729986 0.717503C0.385775 0.899325 0.0489447 1.2458 -0.136191 1.60869C-0.420448 2.1659 -0.439127 2.49128 -0.439127 6.88439C-0.439127 11.2793 -0.420599 11.6026 -0.13589 12.1607C0.205158 12.8291 1.07299 13.3619 1.82047 13.3619C2.56794 13.3619 3.43577 12.8291 3.77682 12.1607C4.05355 11.6181 4.08006 11.2763 4.08006 8.24617V4.92607H7.40016C10.4303 4.92607 10.7721 4.89956 11.3147 4.62283C11.9831 4.28179 12.5159 3.41395 12.5159 2.66648C12.5159 1.919 11.9831 1.05117 11.3147 0.710122C10.7555 0.424811 10.4408 0.407336 6.00674 0.413513C1.61183 0.419689 1.25512 0.440326 0.729986 0.717503ZM59.7807 0.717503C59.1447 1.05328 58.6116 1.94205 58.6116 2.66648C58.6116 3.41395 59.1444 4.28179 59.8128 4.62283C60.3554 4.89956 60.6972 4.92607 63.7273 4.92607H67.0474V8.24617C67.0474 11.2763 67.0739 11.6181 67.3506 12.1607C67.6917 12.8291 68.5595 13.3619 69.307 13.3619C70.0545 13.3619 70.9223 12.8291 71.2633 12.1607C71.5481 11.6026 71.5666 11.2793 71.5666 6.88439C71.5666 2.48948 71.5481 2.1662 71.2633 1.60808C71.0681 1.22531 70.7482 0.905351 70.3654 0.710122C69.8062 0.424811 69.4915 0.407336 65.0574 0.413513C60.6625 0.419689 60.3058 0.440326 59.7807 0.717503ZM27.2786 11.4783C22.4722 12.4455 18.7748 16.1822 17.8521 21.0046C17.7113 21.7409 17.6376 23.156 17.6376 25.1288V28.1319L34.7729 28.0907L51.9081 28.0492L53.0131 27.6457C55.949 26.5731 58.0589 24.4336 59.0772 21.4964C59.385 20.6089 59.4225 20.1706 59.4793 16.809C59.5391 13.2717 59.5273 13.0719 59.2254 12.48C59.0171 12.0717 58.7056 11.7558 58.3142 11.5562C57.7299 11.2581 57.4697 11.2532 42.9888 11.2671C31.5007 11.2781 28.0421 11.3246 27.2786 11.4783ZM52.812 32.3878C52.4885 32.5095 47.4236 32.5714 34.9988 32.6056L17.6376 32.6534V35.812V38.9706H8.21662C-0.928104 38.9706 -1.2217 38.9795 -1.7988 39.2738C-2.46719 39.6149 -3 40.4827 -3 41.2302C-3 41.9777 -2.46719 42.8455 -1.7988 43.1866C-1.22185 43.4809 -0.927953 43.4898 8.19613 43.4898H17.5965L17.6851 46.0883C17.7349 47.5532 17.8755 49.1353 18.007 49.7148C19.6429 56.9237 25.1134 62.264 32.325 63.6925C33.6994 63.9649 37.428 63.9649 38.8025 63.6925C46.0145 62.264 51.4844 56.9241 53.1205 49.7148C53.252 49.1353 53.3925 47.5532 53.4424 46.0883L53.531 43.4898H62.9313C72.0554 43.4898 72.3493 43.4809 72.9263 43.1866C73.5946 42.8455 74.1275 41.9777 74.1275 41.2302C74.1275 40.4827 73.5946 39.6149 72.9263 39.2738C72.3492 38.9795 72.0556 38.9706 62.9108 38.9706H53.4898V35.5812C53.4898 33.7171 53.4391 32.1977 53.3769 32.2048C53.3146 32.2119 53.0605 32.2943 52.812 32.3878ZM53.4898 41.2302V43.4898H35.5637H17.6376V41.2302V38.9706H35.5637H53.4898V41.2302ZM0.729986 59.7682C0.385775 59.95 0.0489447 60.2965 -0.136191 60.6594C-0.420448 61.2166 -0.439127 61.542 -0.439127 65.9351C-0.439127 70.33 -0.420599 70.6533 -0.13589 71.2114C0.059339 71.5942 0.379297 71.9141 0.762073 72.1094C1.32019 72.3941 1.64346 72.4126 6.03837 72.4126C10.4333 72.4126 10.7566 72.3941 11.3147 72.1094C11.9831 71.7683 12.5159 70.9005 12.5159 70.153C12.5159 69.4055 11.9831 68.5377 11.3147 68.1966C10.7721 67.9199 10.4303 67.8934 7.40016 67.8934H4.08006V64.5733C4.08006 61.5432 4.05355 61.2014 3.77682 60.6588C3.22096 59.5692 1.86023 59.1715 0.729986 59.7682ZM68.2165 59.7682C67.8723 59.95 67.5355 60.2965 67.3503 60.6594C67.0739 61.2012 67.0474 61.5446 67.0474 64.5733V67.8934H63.7273C60.6972 67.8934 60.3554 67.9199 59.8128 68.1966C59.1444 68.5377 58.6116 69.4055 58.6116 70.153C58.6116 70.9005 59.1444 71.7683 59.8128 72.1094C60.3709 72.3941 60.6942 72.4126 65.0891 72.4126C69.484 72.4126 69.8073 72.3941 70.3654 72.1094C70.7482 71.9141 71.0681 71.5942 71.2633 71.2114C71.5481 70.6533 71.5666 70.33 71.5666 65.9351C71.5666 61.5402 71.5481 61.2169 71.2633 60.6588C70.7075 59.5692 69.3468 59.1715 68.2165 59.7682Z" fill="white"/>
</g>
<defs>
<clipPath id="clip0_290_1036">
<rect width="72" height="72" fill="white" transform="translate(0 0.000488281)"/>
</clipPath>
</defs>
</svg>
