<svg width="72" height="72" viewBox="0 0 72 72" fill="none" xmlns="http://www.w3.org/2000/svg">
<g clip-path="url(#clip0_290_1026)">
<path fill-rule="evenodd" clip-rule="evenodd" d="M22.6772 2.22779L21.6115 4.03637L22.3229 4.4973C25.4895 6.54929 28.1505 10.867 29.1112 15.5122L29.336 16.5998L28.298 17.6776C27.7271 18.2705 27.0564 19.0784 26.8074 19.4733C25.7932 21.0811 25.2328 23.1496 25.2328 25.2852V26.5538L26.5053 25.9158C29.3935 24.4676 32.2666 23.8176 35.7788 23.8176C39.2805 23.8176 42.1457 24.464 45.0575 25.9109L46.3249 26.5406V25.2785C46.3249 22.2275 45.3715 19.8605 43.2637 17.6785L42.2233 16.6017L42.4618 15.4325C42.9857 12.8634 44.3477 9.73125 45.7623 7.84252C46.595 6.7304 48.2493 5.13583 49.2284 4.50138L49.9461 4.03637L48.8786 2.22455L47.8109 0.412598L47.2871 0.725324C45.4541 1.81972 43.1749 4.06927 41.7537 6.1865C40.3697 8.24805 38.9259 11.6411 38.4563 13.9355L38.2916 14.7401L37.6328 14.6385C37.2705 14.5827 36.4362 14.537 35.7788 14.537C35.1215 14.537 34.2872 14.5827 33.9248 14.6385L33.2661 14.7401L33.1014 13.9355C32.4359 10.6845 30.5035 6.78819 28.2442 4.14141C27.3525 3.09706 25.1983 1.23547 24.2944 0.728699L23.7428 0.419207L22.6772 2.22779ZM32.0525 28.3858C27.2684 29.4738 23.0144 32.7289 20.7975 36.9979C20.0027 38.5282 19.5251 39.7843 19.1522 41.324C18.8856 42.4249 18.858 43.0577 18.8025 49.3391C18.7644 53.6545 18.797 56.6236 18.8915 57.4244C19.0469 58.7428 19.4757 60.5615 19.8326 61.4156L20.0403 61.9126L26.855 55.099L33.6696 48.2856V38.1959C33.6696 28.6759 33.6557 28.107 33.4235 28.1181C33.2881 28.1247 32.6713 28.2451 32.0525 28.3858ZM37.888 38.1959V48.2856L44.6925 55.0889C50.6523 61.0477 51.5145 61.8595 51.6377 61.6269C51.9211 61.0922 52.3785 59.3208 52.5822 57.9687C52.8892 55.9322 52.884 44.5731 52.5751 42.493C51.5271 35.4353 46.1773 29.775 39.1796 28.3202C38.6138 28.2025 38.0918 28.1063 38.0195 28.1063C37.9392 28.1063 37.888 32.0338 37.888 38.1959ZM8.53073 32.7772L6.80413 33.7626L7.17718 34.4147C7.85368 35.5974 9.48663 37.6442 10.5131 38.5961C11.88 39.8638 14.5579 41.6403 14.7749 41.4233C14.8083 41.3899 14.9883 40.7368 15.1746 39.9723C15.3609 39.2077 15.6084 38.3156 15.7247 37.9898L15.9359 37.3977L14.9846 36.7652C13.7697 35.9575 11.9783 34.0903 11.1687 32.7875C10.822 32.23 10.4753 31.7779 10.398 31.7828C10.3206 31.7877 9.48044 32.2353 8.53073 32.7772ZM60.2617 32.9537C59.3669 34.3402 57.8723 35.8876 56.5668 36.7795L55.6296 37.42L55.8369 38.001C55.9509 38.3207 56.1967 39.2077 56.383 39.9723C56.5694 40.7368 56.7526 41.3931 56.79 41.4306C56.8742 41.5149 58.2029 40.7734 59.3317 40.0122C60.6662 39.1125 62.6068 37.0667 63.7415 35.3633C64.3027 34.521 64.7108 33.784 64.6482 33.7255C64.4738 33.563 61.21 31.761 61.1084 31.7714C61.0593 31.7765 60.6782 32.3084 60.2617 32.9537ZM4 50.1827V52.292H9.27304H14.5461V50.1827V48.0735H9.27304H4V50.1827ZM57.0116 50.1827V52.292H62.2846H67.5577V50.1827V48.0735H62.2846H57.0116V50.1827ZM27.9196 60.0809L22.2399 65.7618L22.5262 66.1637C23.061 66.9149 25.3578 69.0207 26.3166 69.639C28.3219 70.9324 30.4245 71.8011 32.5188 72.2018C33.0983 72.3126 33.5947 72.381 33.6219 72.3537C33.6494 72.3263 33.6554 68.2756 33.6354 63.3518L33.5993 54.3998L27.9196 60.0809ZM37.888 63.3724V72.4126L38.4153 72.3247C41.0627 71.8837 43.894 70.695 45.9049 69.18C46.8072 68.5003 49.2778 66.0467 49.2778 65.8303C49.2778 65.7693 46.7151 63.1572 43.5829 60.0257L37.888 54.3321V63.3724ZM13.7045 59.5522C11.2075 60.942 8.68035 63.4746 7.17634 66.0951L6.79991 66.7508L8.64013 67.7647C9.65213 68.3224 10.4982 68.7551 10.5201 68.7261C10.5421 68.6971 10.7096 68.4204 10.8922 68.1111C11.8106 66.556 13.358 64.881 14.8273 63.8516C15.33 63.4993 15.7902 63.17 15.85 63.1198C15.9097 63.0695 15.8671 62.8093 15.7552 62.5415C15.5807 62.1237 15.2272 60.8216 14.91 59.4281C14.8616 59.2155 14.7757 59.0421 14.7192 59.043C14.6626 59.044 14.2061 59.273 13.7045 59.5522ZM56.6512 59.4281C56.5183 60.0364 55.7972 62.6026 55.6891 62.8521C55.6157 63.0214 55.8206 63.2264 56.5156 63.6793C57.7741 64.4991 59.3206 66.0956 60.2487 67.5327C60.6725 68.1888 61.0597 68.7296 61.1094 68.7347C61.1589 68.7398 61.9992 68.2939 62.9766 67.7438L64.7537 66.7437L64.3794 66.0916C63.3166 64.24 61.3819 62.0299 59.7441 60.7969C58.8437 60.119 57.0531 59.0414 56.8268 59.0414C56.7768 59.0414 56.6977 59.2155 56.6512 59.4281Z" fill="white"/>
</g>
<defs>
<clipPath id="clip0_290_1026">
<rect width="72" height="72" fill="white" transform="translate(0 0.000488281)"/>
</clipPath>
</defs>
</svg>
