<svg width="72" height="73" viewBox="0 0 72 73" fill="none" xmlns="http://www.w3.org/2000/svg">
<g clip-path="url(#clip0_292_1056)">
<path fill-rule="evenodd" clip-rule="evenodd" d="M5.39274 0.589462C5.04501 0.937041 5.0118 1.09143 5.0118 2.35932V3.74824L4.29182 3.99356C2.57596 4.57824 1.41514 5.62144 0.641934 7.27383C-0.87748 10.5206 0.763276 14.4622 4.13727 15.6713C4.49028 15.7979 5.34805 15.9614 6.04352 16.035C7.96994 16.2386 8.99033 16.8965 9.6543 18.3633C10.4263 20.0688 9.6512 22.1922 7.91393 23.1315C7.22917 23.5016 5.27714 23.5016 4.59238 23.1315C3.41977 22.4975 2.5291 21.0763 2.5291 19.8389C2.5291 18.9557 1.63238 18.3382 0.83155 18.6697C0.181858 18.9388 -0.0159824 19.4357 0.106601 20.4894C0.375664 22.8033 2.20774 25.0373 4.35233 25.6669L5.0118 25.8606V27.2396C5.0118 28.4967 5.04547 28.6522 5.39274 28.9993C5.89657 29.5033 6.60973 29.5033 7.11356 28.9993C7.46068 28.6524 7.4945 28.4966 7.4945 27.2433V25.868L8.30914 25.6087C9.87852 25.1089 11.4685 23.5419 12.0807 21.8917C12.2973 21.3079 12.3823 20.6829 12.3823 19.6742C12.3823 18.3622 12.3437 18.1912 11.797 17.0852C11.1818 15.8404 10.2647 14.8735 9.16722 14.3123C8.4249 13.9326 6.96569 13.5531 6.24819 13.5531C3.65159 13.5531 1.79872 10.7594 2.85201 8.43248C3.52327 6.94953 4.67121 6.19401 6.25315 6.19401C8.24304 6.19401 9.6917 7.51884 9.93345 9.55947C10.1018 10.9819 11.2164 11.5521 12.1002 10.6683C12.4751 10.2934 12.4958 10.1983 12.4079 9.25658C12.1887 6.90996 10.6184 4.87492 8.40364 4.06726L7.4945 3.73582V2.35311C7.4945 1.09174 7.46099 0.936731 7.11356 0.589462C6.87352 0.349261 6.55542 0.208523 6.25315 0.208523C5.95088 0.208523 5.63279 0.349261 5.39274 0.589462ZM32.3991 0.391001C30.5075 0.581394 27.4556 1.20191 25.5717 1.77914C23.4727 2.42216 20.6846 3.57212 20.2571 3.97121C19.6324 4.55418 19.8441 5.60188 20.6542 5.93752C21.0511 6.10184 21.2594 6.05777 22.4835 5.55006C26.9381 3.70215 30.3855 2.92103 34.8818 2.74088C44.0875 2.37189 53.1404 5.94357 59.7104 12.5364C65.7168 18.5635 69.0693 26.1553 69.5098 34.7274C69.603 36.5418 69.6479 36.7731 69.9685 37.0937C70.4562 37.5814 71.171 37.5611 71.6871 37.045L72.0912 36.6409L71.9965 34.6624C71.0058 13.9481 52.9508 -1.67833 32.3991 0.391001ZM34.6979 12.9237C34.3407 13.0858 33.8262 13.3811 33.5545 13.5797C32.2097 14.5632 30.3099 17.78 29.2175 20.9236C28.7419 22.2923 27.981 25.079 27.9782 25.4623C27.9771 25.615 29.6933 25.6562 36.0456 25.6562C42.3979 25.6562 44.1141 25.615 44.113 25.4623C44.1102 25.079 43.3492 22.2923 42.8736 20.9236C42.1422 18.8187 40.8329 16.2364 39.8787 15.0171C38.2099 12.8841 36.3978 12.1519 34.6979 12.9237ZM28.5199 13.8738C23.037 15.717 18.3821 19.6172 15.3364 24.9192L14.9131 25.6562L20.1648 25.6558L25.4165 25.6553L25.7757 23.9877C26.4836 20.7011 27.9971 16.8488 29.4458 14.6471C29.8978 13.9601 30.1886 13.3993 30.0921 13.4011C29.9954 13.4028 29.288 13.6156 28.5199 13.8738ZM42.6336 14.629C44.0937 16.8485 45.6052 20.6904 46.3154 23.9877L46.6747 25.6553L51.9264 25.6558L57.178 25.6562L56.7547 24.9192C55.6655 23.023 54.4832 21.4366 53.0519 19.9505C51.2622 18.0924 49.4888 16.7075 47.4601 15.5836C46.092 14.8257 43.2015 13.642 42.2582 13.4534L41.7997 13.3617L42.6336 14.629ZM13.4935 29.3415C12.7988 31.5601 12.5375 33.4369 12.5375 36.2077C12.5375 38.9786 12.7988 40.8553 13.4935 43.0739L13.8699 44.2765H19.4661H25.0623L24.9771 43.9274C24.3891 41.5162 24.3891 30.8992 24.9771 28.4881L25.0623 28.1389H19.4661H13.8699L13.4935 29.3415ZM27.4553 28.6432C27.1746 30.2061 26.9974 33.1323 26.9974 36.2077C26.9974 39.2832 27.1746 42.2093 27.4553 43.7722L27.5459 44.2765H36.0456H44.5453L44.6359 43.7722C45.2428 40.3934 45.2428 32.022 44.6359 28.6432L44.5453 28.1389H36.0456H27.5459L27.4553 28.6432ZM47.1141 28.4881C47.702 30.8992 47.702 41.5162 47.1141 43.9274L47.0289 44.2765H52.6268H58.2248L58.6103 42.9964C59.345 40.556 59.5431 39.1142 59.5431 36.2077C59.5431 33.3012 59.345 31.8594 58.6103 29.4191L58.2248 28.1389H52.6268H47.0289L47.1141 28.4881ZM0.40406 35.3704L0 35.7745L0.0946531 37.753C0.650003 49.365 6.62075 59.8876 16.2615 66.2456C20.576 69.091 25.6187 71.0135 30.925 71.8362C33.1104 72.1751 38.5181 72.2244 40.6231 71.925C44.8946 71.317 50.8701 69.4272 51.834 68.3795C52.4347 67.7267 52.2446 66.8125 51.4388 66.4787C51.0377 66.3125 50.7838 66.3785 48.9114 67.1343C42.4061 69.76 35.9907 70.3807 29.3628 69.0252C20.2092 67.1532 12.285 61.5811 7.40668 53.5859C5.62611 50.6676 4.06031 46.7651 3.30944 43.3742C2.91423 41.5896 2.5291 38.3746 2.5291 36.8611C2.5291 35.8651 2.48301 35.682 2.14816 35.3473C1.6347 34.8337 0.931479 34.843 0.40406 35.3704ZM64.9776 43.4161C64.6293 43.7643 64.5967 43.9171 64.5967 45.2005C64.5967 45.9962 64.532 46.604 64.4474 46.604C63.9009 46.604 62.464 47.353 61.7386 48.0161C60.2142 49.4092 59.5271 51.0946 59.6767 53.073C59.8124 54.8654 60.6067 56.3825 61.9768 57.4654C62.955 58.2386 64.1231 58.6676 65.755 58.8531C67.2529 59.0233 67.7269 59.2276 68.5212 60.0454C70.2352 61.8101 69.7141 64.7006 67.4673 65.8923C66.6536 66.3238 65.0671 66.3468 64.2863 65.9384C63.0548 65.2943 62.3207 64.2304 62.1576 62.8536C61.9894 61.4335 60.8742 60.8641 59.9909 61.7471C59.6161 62.122 59.5954 62.2171 59.6833 63.1589C59.9025 65.5055 61.4728 67.5405 63.6875 68.3482L64.5967 68.6796V70.0623C64.5967 71.3237 64.6302 71.4787 64.9776 71.826C65.2177 72.0662 65.5358 72.2069 65.838 72.2069C66.1403 72.2069 66.4584 72.0662 66.6984 71.826C67.0459 71.4787 67.0794 71.3237 67.0794 70.0623V68.6796L67.9885 68.3482C72.413 66.7349 73.4176 61.0707 69.8485 57.8617C68.908 57.0162 67.7159 56.5507 66.0477 56.3778C64.1225 56.1784 63.1016 55.5208 62.4369 54.0521C61.3673 51.6895 63.1971 48.9384 65.838 48.9384C66.8853 48.9384 67.7674 49.3173 68.5173 50.0896C69.1115 50.7013 69.5621 51.774 69.5621 52.5765C69.5621 53.4667 70.5508 54.1252 71.2933 53.7297C71.832 53.4426 72.0349 53.1072 72.0361 52.5005C72.0414 50.0091 70.128 47.4478 67.7388 46.748L67.0794 46.5548V45.1759C67.0794 43.9187 67.0457 43.7632 66.6984 43.4161C66.4584 43.1759 66.1403 43.0351 65.838 43.0351C65.5358 43.0351 65.2177 43.1759 64.9776 43.4161ZM15.3364 47.4963C16.5913 49.6807 17.5977 50.9891 19.4309 52.8193C21.5587 54.9436 23.3431 56.2377 25.7405 57.3949C27.0137 58.0094 29.7313 59.0176 30.1149 59.0176C30.1988 59.0176 29.8978 58.4554 29.4458 57.7683C27.9971 55.5666 26.4836 51.7144 25.7757 48.4277L25.4165 46.7601L20.1648 46.7597L14.9131 46.7592L15.3364 47.4963ZM27.9782 46.9532C27.981 47.3364 28.7419 50.1231 29.2175 51.4919C30.7016 55.7624 32.7347 58.6787 34.8381 59.5535C37.5476 60.6803 40.4988 57.869 42.6355 52.1253C43.1683 50.693 44.1111 47.3932 44.1134 46.9532C44.1142 46.8005 42.3977 46.7592 36.0456 46.7592C29.6933 46.7592 27.9771 46.8005 27.9782 46.9532ZM46.3154 48.4277C45.6052 51.7251 44.0937 55.5669 42.6336 57.7864L41.7997 59.0537L42.2582 58.962C43.2015 58.7735 46.092 57.5897 47.4601 56.8318C51.2107 54.7541 54.4609 51.4895 56.7547 47.4963L57.178 46.7592L51.9264 46.7597L46.6747 46.7601L46.3154 48.4277Z" fill="white"/>
</g>
<defs>
<clipPath id="clip0_292_1056">
<rect width="72" height="72" fill="white" transform="translate(0 0.499634)"/>
</clipPath>
</defs>
</svg>
