<svg width="72" height="72" viewBox="0 0 72 72" fill="none" xmlns="http://www.w3.org/2000/svg">
<g clip-path="url(#clip0_290_990)">
<path fill-rule="evenodd" clip-rule="evenodd" d="M27.6368 0.635197C27.3675 0.770409 27.0034 1.09627 26.8278 1.35924C26.5102 1.83452 26.5084 1.86702 26.509 6.98724C26.5094 11.8778 26.5236 12.1602 26.7891 12.5957C27.6474 14.0035 29.6426 13.937 30.4158 12.4748C30.7422 11.8576 30.7424 11.8548 30.7007 6.86173C30.6615 2.15785 30.6426 1.8386 30.3777 1.3954C29.8358 0.489009 28.6064 0.148093 27.6368 0.635197ZM16.4364 7.34222C15.5686 7.72014 15.04 8.80353 15.2561 9.76142C15.3461 10.1607 15.7163 10.6293 16.8257 11.7481C18.4248 13.3608 18.7943 13.6145 19.5438 13.6145C20.6421 13.6145 21.4604 12.8505 21.5525 11.7391C21.6364 10.7284 21.4621 10.4372 19.7936 8.80212C18.0673 7.11007 17.5181 6.8713 16.4364 7.34222ZM39.1011 7.34222C38.4085 7.65204 35.7054 10.5102 35.5871 11.0577C35.2529 12.6052 36.5343 13.8502 38.1494 13.5472C38.5648 13.4693 38.9812 13.1491 40.1362 12.0189C40.9399 11.2327 41.6846 10.3857 41.7914 10.1367C42.5364 8.39818 40.7916 6.58582 39.1011 7.34222ZM56.1257 7.422C55.7598 7.60378 50.948 12.3172 42.3727 20.8939L29.1826 34.0863L30.1589 35.2119C33.8985 39.5233 34.9071 45.4388 32.8098 50.7593C31.9922 52.8336 30.0525 55.583 29.0139 56.1401C27.739 56.8237 26.1389 56.035 25.9823 54.6457C25.8764 53.7062 26.0044 53.3975 26.9346 52.3497C27.949 51.207 28.9449 49.3397 29.3383 47.8431C29.733 46.3414 29.7352 43.9294 29.3432 42.4388C28.7825 40.3063 27.734 38.647 25.666 36.6189C25.0347 35.9998 24.4351 35.335 24.3336 35.1416C24.2322 34.9481 23.5654 32.2572 22.852 29.1618C21.4237 22.9641 21.2056 22.3546 20.0465 21.3233C18.7522 20.1717 16.9972 19.6425 15.4294 19.9315C14.2788 20.1434 13.817 20.3784 13.3993 20.9639L13.0716 21.4233L13.034 36.7551L12.9963 52.0869L10.0645 55.0461C7.53966 57.5948 7.1215 58.0778 7.05172 58.5273C6.86557 59.7255 6.84827 59.7041 13.1198 65.9943C17.0067 69.8926 19.1765 71.9674 19.5613 72.154C20.1291 72.429 20.3897 72.4344 31.3801 72.396L42.6186 72.3567L43.4628 72.023C44.2472 71.7129 44.744 71.2538 50.482 65.5342L56.657 59.3791L55.7796 58.9114C53.6743 57.7893 51.9751 55.1487 51.9751 52.9991V52.484L51.1334 52.3889C48.5769 52.0996 46.4756 50.6139 45.3584 48.3057C44.9657 47.4943 44.7734 46.8772 44.6966 46.1819L44.5884 45.2016L43.8849 45.0846C41.3734 44.6664 39.6467 43.6062 38.4109 41.7237C37.607 40.499 37.2919 39.374 37.2967 37.7445C37.3012 36.2295 37.5444 35.3054 38.2746 34.0272C38.5025 33.6283 42.7072 29.3097 49.3131 22.6896C56.7583 15.2283 60.0489 11.8383 60.2001 11.4733C60.5071 10.733 60.479 9.50366 60.1398 8.83871C59.4079 7.40385 57.5105 6.73426 56.1257 7.422ZM50.5681 27.6427C49.9482 27.9363 42.3604 35.4368 41.9145 36.1968C40.7927 38.1088 41.8944 40.423 44.1257 40.8416C44.445 40.9016 44.9151 40.855 45.3856 40.7171C46.0906 40.5103 46.389 40.2434 50.3168 36.3067C53.1032 33.514 54.5696 31.9421 54.7137 31.5934C55.3186 30.1291 54.6633 28.4182 53.2119 27.6715C52.5545 27.3334 51.2511 27.3192 50.5681 27.6427ZM56.3368 36.7149C55.9711 36.8196 55.0175 37.6764 52.6315 40.0438C50.8382 41.8233 49.2898 43.4804 49.1269 43.7946C48.5018 45.0004 48.8635 46.603 49.966 47.5125C50.9168 48.2967 52.0374 48.4284 53.1711 47.8893C54.0712 47.4611 59.8623 41.6848 60.1986 40.8796C60.5052 40.1454 60.4796 38.9111 60.144 38.2532C59.4404 36.8739 57.923 36.2608 56.3368 36.7149ZM61.9486 45.8801C61.6689 45.9845 61.2574 46.201 61.0341 46.3611C60.2566 46.919 56.6717 50.6926 56.4347 51.2026C55.9521 52.2417 56.2083 53.7535 57.0126 54.6111C57.851 55.5052 59.3669 55.7953 60.4874 55.2762C60.8364 55.1144 61.9371 54.1134 63.3845 52.6411C65.4705 50.5192 65.7365 50.1946 65.8864 49.5886C66.1396 48.5648 65.8647 47.4879 65.1493 46.7005C64.4289 45.9077 62.9147 45.5196 61.9486 45.8801Z" fill="white"/>
</g>
<defs>
<clipPath id="clip0_290_990">
<rect width="72" height="72" fill="white" transform="translate(0 -0.000488281)"/>
</clipPath>
</defs>
</svg>
