<svg width="72" height="73" viewBox="0 0 72 73" fill="none" xmlns="http://www.w3.org/2000/svg">
<g clip-path="url(#clip0_285_645)">
<path fill-rule="evenodd" clip-rule="evenodd" d="M32.9983 0.427044C32.2135 0.852214 17.6553 13.4239 17.3368 13.9515C16.9376 14.6131 16.9376 15.308 17.3368 16.0045C17.9168 17.0161 18.1715 17.0739 22.0439 17.0739H25.4568V44.6404V72.2068H33.0572C40.3971 72.2068 40.6767 72.1971 41.2127 71.9237C42.2045 71.4176 42.3342 70.9543 42.3342 67.9161V65.3021L41.8969 65.0624C40.6941 64.4035 38.4811 62.8355 37.4529 61.9135C27.1082 52.6388 27.1082 36.6302 37.4529 27.3686C38.4999 26.4312 40.7599 24.8263 41.8892 24.2183L42.3342 23.9786V20.5263V17.0739H45.7153C48.8263 17.0739 49.1407 17.0513 49.6514 16.7908C50.6869 16.2624 51.0553 14.9555 50.4542 13.9428C50.0891 13.3279 35.0791 0.423246 34.5704 0.286961C34.0299 0.142237 33.4247 0.196105 32.9983 0.427044ZM50.9135 25.7392C46.3791 26.3004 42.597 28.1448 39.4495 31.3297C36.6545 34.1579 35.043 37.1767 34.2211 41.1242C33.8755 42.7831 33.8755 46.4976 34.2211 48.1565C35.043 52.104 36.6545 55.1228 39.4495 57.951C42.2489 60.7837 45.3758 62.4708 49.3664 63.3018C50.9902 63.6401 54.7192 63.6428 56.3987 63.3072C64.1786 61.7522 70.0384 55.943 71.6814 48.1565C72.0325 46.4927 72.0325 42.7881 71.6814 41.1242C70.0502 33.3935 64.1865 27.5407 56.5305 26.0015C55.4909 25.7925 51.8547 25.6228 50.9135 25.7392ZM13.8902 30.1626C13.5689 30.3324 13.2544 30.6559 13.0815 30.9947C12.8021 31.5427 12.7987 31.7896 12.7987 51.8779V72.2068H17.0181H21.2374V51.0397V29.8726L17.8268 29.8788C14.7095 29.8846 14.3708 29.9089 13.8902 30.1626ZM53.8707 30.1557C54.74 30.5993 54.9922 31.239 54.9922 33.0007V34.4522L56.0119 34.9571C57.3605 35.6247 58.4569 36.6133 58.6519 37.3376C59.0567 38.841 57.6671 40.2691 56.1283 39.9311C55.8901 39.8788 55.4262 39.6102 55.0976 39.3341C54.3396 38.6977 53.5125 38.3177 52.8825 38.3167C51.816 38.315 50.7729 39.3399 50.7729 40.3892C50.7729 41.486 51.8252 42.5307 52.9299 42.5307C55.1369 42.5307 57.3721 43.8962 58.4157 45.8823C59.3854 47.7277 59.4315 49.8043 58.5438 51.6497C58.0487 52.6789 56.684 54.0602 55.7306 54.497L54.9922 54.8354V56.2835C54.9922 58.0414 54.7395 58.6817 53.8707 59.125C53.1502 59.4925 52.562 59.4831 51.8675 59.0928C51.0021 58.6064 50.7729 58.0177 50.7729 56.2825V54.8335L49.7532 54.343C48.4844 53.7328 46.6449 52.0048 46.487 51.2749C46.1513 49.7233 47.5612 48.2998 49.0318 48.7058C49.3265 48.7871 49.8796 49.1722 50.3597 49.6302C51.7155 50.9234 52.7789 51.2432 53.8707 50.6863C54.4948 50.3678 54.9922 49.5576 54.9922 48.8597C54.9922 47.7635 53.9509 46.75 52.8247 46.75C51.2875 46.75 49.6473 46.0405 48.4459 44.8557C46.4596 42.8968 46.0154 40.119 47.2705 37.5035C47.7084 36.5911 49.1231 35.205 50.0345 34.7955L50.7729 34.4637L50.7788 32.9769C50.7857 31.2365 50.9809 30.7272 51.8408 30.2067C52.5142 29.7991 53.1406 29.7833 53.8707 30.1557ZM1.09155 47.04C0.770172 47.2098 0.45569 47.5333 0.282837 47.8721C0.00661031 48.4137 0 48.6839 0 59.4784C0 70.0522 0.0115329 70.5528 0.266804 71.0532C0.423342 71.3601 0.76539 71.7064 1.09464 71.8915C1.63275 72.1938 1.79421 72.2068 5.04719 72.2068H8.4387V59.4784V46.75L5.02806 46.7562C1.9108 46.762 1.57213 46.7863 1.09155 47.04Z" fill="white"/>
</g>
<defs>
<clipPath id="clip0_285_645">
<rect width="72" height="72" fill="white" transform="translate(0 0.499512)"/>
</clipPath>
</defs>
</svg>
