<svg width="72" height="73" viewBox="0 0 72 73" fill="none" xmlns="http://www.w3.org/2000/svg">
<path fill-rule="evenodd" clip-rule="evenodd" d="M60.0887 0.327069C56.8806 0.957067 54.5541 4.30233 55.1343 7.45106C55.2281 7.95992 55.254 8.42166 55.1919 8.47709C54.835 8.79561 48.2129 13.7062 48.0623 13.7638C47.9624 13.8022 47.5695 13.6779 47.1889 13.4874C44.8751 12.3298 41.8992 12.844 40.0164 14.7268C38.3306 16.4126 37.7293 18.9618 38.4921 21.1886L38.7265 21.8731L34.5033 26.0962L30.2801 30.3194L29.5957 30.085C28.6234 29.7518 27.4978 29.6642 26.5248 29.8457C25.6282 30.0128 24.2366 30.6337 23.5962 31.152L23.2051 31.4685L20.1142 29.9281L17.0232 28.3877V27.8066C17.0232 23.8631 13.5224 20.7674 9.7668 21.3897C7.00694 21.847 4.93039 23.9236 4.47301 26.6834C3.79898 30.7516 7.54957 34.5021 11.6177 33.8281C12.5766 33.6691 13.9912 33.057 14.6707 32.5071L15.0619 32.1905L18.1528 33.7309L21.2438 35.2713V35.8525C21.2438 39.7959 24.7445 42.8916 28.5002 42.2694C32.3958 41.6237 34.7968 37.6981 33.5399 34.0292L33.3055 33.3447L37.5286 29.1216L41.7518 24.8984L42.4362 25.1328C46.8362 26.6401 51.4929 22.7284 50.6627 18.2224C50.5688 17.7135 50.5429 17.2518 50.605 17.1963C50.9619 16.8778 57.5841 11.9673 57.7346 11.9096C57.8345 11.8712 58.2274 11.9955 58.608 12.186C60.2681 13.0165 62.2622 13.0061 64.0758 12.1573C66.4994 11.0232 67.9934 8.20219 67.5589 5.58034C66.9648 1.99562 63.6091 -0.364269 60.0887 0.327069ZM56.1006 21.5681C55.7792 21.7379 55.4646 22.0614 55.2917 22.4004C55.0117 22.9492 55.0088 23.1914 55.0088 45.4706V67.9862H52.8985H50.7881V51.8015C50.7881 35.8584 50.7839 35.6085 50.5049 35.0617C50.3226 34.7042 50.0238 34.4054 49.6663 34.223C49.1429 33.9561 48.8438 33.9398 44.4572 33.9398C40.0706 33.9398 39.7715 33.9561 39.2481 34.223C38.8906 34.4054 38.5918 34.7042 38.4095 35.0617C38.1305 35.6085 38.1263 35.8584 38.1263 51.8015V67.9862H36.016H33.9057V60.2427C33.9057 52.7597 33.8961 52.4807 33.6225 51.9441C33.4401 51.5867 33.1413 51.2878 32.7838 51.1055C32.2605 50.8386 31.9614 50.8223 27.5747 50.8223C23.1881 50.8223 22.889 50.8386 22.3656 51.1055C22.0082 51.2878 21.7093 51.5867 21.527 51.9441C21.2534 52.4807 21.2438 52.7597 21.2438 60.2427V67.9862H19.1335H17.0232V56.0221C17.0232 44.309 17.0173 44.0465 16.74 43.5029C16.5576 43.1454 16.2588 42.8466 15.9013 42.6643C15.378 42.3974 15.0789 42.3811 10.6922 42.3811C6.30561 42.3811 6.00651 42.3974 5.48315 42.6643C5.12566 42.8466 4.82684 43.1454 4.64451 43.5029C4.36722 44.0465 4.36131 44.309 4.36131 56.0221V67.9862H3.01915C1.95176 67.9862 1.56346 68.0441 1.12184 68.2694C0.497611 68.5879 0 69.3984 0 70.0965C0 70.7946 0.497611 71.6051 1.12184 71.9236C1.67376 72.2051 1.87818 72.2068 36.016 72.2068C70.1538 72.2068 70.3582 72.2051 70.9101 71.9236C71.5343 71.6051 72.0319 70.7946 72.0319 70.0965C72.0319 69.3984 71.5343 68.5879 70.9101 68.2694C70.4685 68.0441 70.0802 67.9862 69.0128 67.9862H67.6706V45.4706C67.6706 23.1824 67.6678 22.9493 67.3874 22.3998C67.2051 22.0423 66.9063 21.7435 66.5488 21.5612C66.0245 21.2937 65.7332 21.2782 61.3102 21.2841C56.9254 21.2901 56.593 21.3081 56.1006 21.5681Z" fill="white"/>
</svg>
