<svg width="102" height="73" viewBox="0 0 102 73" fill="none" xmlns="http://www.w3.org/2000/svg">
<g clip-path="url(#clip0_290_960)">
<path fill-rule="evenodd" clip-rule="evenodd" d="M70.7277 0.751564C69.9863 0.945875 68.8642 1.37476 68.2342 1.70483C66.7327 2.4915 64.4928 4.73088 63.707 6.23069C63.0642 7.45751 62.3786 9.83838 62.3786 10.8436V11.4605H58.2227H54.0668V18.387V25.3134H54.6837C55.6889 25.3134 58.0698 25.9991 59.2966 26.6419C60.7949 27.4269 63.0358 29.6677 63.8208 31.1661C64.5918 32.6376 65.1492 34.8321 65.1492 36.3958C65.1492 37.9681 64.5894 40.162 63.8147 41.6256C63.0147 43.1367 60.7774 45.3781 59.2966 46.1517C58.0681 46.7933 55.6867 47.4782 54.6837 47.4782H54.0668V54.4047V61.3312H72.5284C85.4069 61.3312 91.2859 61.2689 91.9688 61.1251C95.1032 60.4649 97.7209 57.8478 98.376 54.7189C98.6671 53.329 98.6629 19.4344 98.3716 18.0728C97.6908 14.8914 95.1326 12.3317 91.9688 11.6664C91.4303 11.5532 89.5395 11.4605 87.7667 11.4605H84.5434V10.8436C84.5434 9.83838 83.8577 7.45751 83.215 6.23069C82.43 4.73236 80.1891 2.4915 78.6908 1.7065C76.2469 0.426111 73.313 0.0742454 70.7277 0.751564ZM10.3838 11.7229C8.82853 12.1121 7.66433 12.7767 6.49163 13.945C5.28383 15.1483 4.55369 16.4734 4.21734 18.0728C3.92532 19.4607 3.92864 53.3535 4.22085 54.7189C4.90001 57.8921 7.45044 60.4426 10.6237 61.1217C11.1621 61.237 13.053 61.3312 14.8258 61.3312H18.0491V61.9481C18.0491 62.9533 18.7347 65.3342 19.3775 66.561C20.1625 68.0593 22.4033 70.3002 23.9017 71.0852C25.3732 71.8561 27.5677 72.4136 29.1315 72.4136C30.6952 72.4136 32.8897 71.8561 34.3612 71.0852C35.8596 70.3002 38.1004 68.0593 38.8854 66.561C39.5282 65.3342 40.2138 62.9533 40.2138 61.9481V61.3312H44.3697H48.5256L48.526 52.5115C48.5262 42.6633 48.5022 42.8593 49.8186 41.969C50.408 41.5704 50.579 41.544 51.758 41.6692C55.0012 42.014 56.2065 41.7495 57.7517 40.3534C59.9887 38.3325 60.1762 35.0981 58.1847 32.8833C56.6865 31.2167 54.6357 30.5798 52.4477 31.1014C51.1222 31.4174 50.1976 31.2636 49.4715 30.606C48.5352 29.7582 48.5256 29.6531 48.5256 20.2399V11.4605L41.6453 11.4608C33.9715 11.461 33.9043 11.471 33.0602 12.7346C32.3622 13.7795 32.4776 14.831 33.4534 16.3166C34.8188 18.3955 34.9998 20.2922 34.0234 22.2881C33.0965 24.1825 31.3786 25.2111 29.1315 25.2172C27.9844 25.2204 27.5657 25.1324 26.6967 24.7058C24.9793 23.8624 23.8808 22.2904 23.6507 20.3465C23.4975 19.0541 23.876 17.7379 24.8095 16.3166C25.7853 14.831 25.9008 13.7795 25.2028 12.7346C24.3681 11.485 24.2081 11.4592 17.4026 11.4765C13.1869 11.4871 11.0225 11.5632 10.3838 11.7229Z" fill="white"/>
</g>
<defs>
<clipPath id="clip0_290_960">
<rect width="102" height="72" fill="white" transform="translate(0 0.413574)"/>
</clipPath>
</defs>
</svg>
